<svg width="24" height="24" viewBox="0 0 24 24" fill="none" xmlns="http://www.w3.org/2000/svg">
<g clip-path="url(#clip0_4_402)">
<path d="M2 2.55005H5.09L7.68 14.64H18.85L21.32 5.45005H5.89" stroke="#1D1D1D" stroke-miterlimit="10"/>
<path d="M19.1287 18.47H8.50875L7.21875 12.49" stroke="#1D1D1D" stroke-miterlimit="10"/>
<path d="M10.3637 22C10.789 22 11.1337 21.6552 11.1337 21.23C11.1337 20.8047 10.789 20.46 10.3637 20.46C9.93849 20.46 9.59375 20.8047 9.59375 21.23C9.59375 21.6552 9.93849 22 10.3637 22Z" fill="#1D1D1D"/>
<path d="M16.8716 22C17.2968 22 17.6416 21.6552 17.6416 21.23C17.6416 20.8047 17.2968 20.46 16.8716 20.46C16.4463 20.46 16.1016 20.8047 16.1016 21.23C16.1016 21.6552 16.4463 22 16.8716 22Z" fill="#1D1D1D"/>
</g>
<defs>
<clipPath id="clip0_4_402">
<rect width="24" height="24" fill="white"/>
</clipPath>
</defs>
</svg>
