<svg width="45" height="12" viewBox="0 0 45 12" fill="none" xmlns="http://www.w3.org/2000/svg">
<path d="M11.4766 8.11251H13.1184C13.3919 9.43906 14.2502 10.2453 15.9742 10.2453C17.3945 10.2453 18.4299 9.71235 18.4299 8.59486V8.58072C18.4299 7.38459 17.468 7.03831 16.1885 6.74239L14.7237 6.40431C12.9042 5.98533 11.7428 5.13547 11.7428 3.37579V3.35457C11.7428 1.63139 13.3774 0.499756 15.6339 0.499756C17.8904 0.499756 19.3473 1.61724 19.6359 3.52715H18.0013C17.6834 2.26651 16.8617 1.75473 15.5529 1.75473C14.2441 1.75473 13.3556 2.30301 13.3556 3.30422V3.31836C13.3556 4.22678 13.9621 4.73177 15.0866 4.99826L16.5586 5.34454C18.6964 5.84925 20.0427 6.43968 20.0427 8.38608V8.40843C20.0427 10.4403 18.2899 11.5003 15.915 11.5003C13.193 11.5003 11.7654 10.0448 11.4769 8.11251H11.4766Z" fill="#1D1D1D"/>
<path d="M21.2812 0.701904H22.8491V11.2982H21.2812V0.701904Z" fill="#1D1D1D"/>
<path d="M24.1562 6.00739V5.99325C24.1562 2.79923 26.3018 0.499756 29.5934 0.499756C32.1455 0.499756 33.9801 1.76152 34.5422 3.84513H32.9003C32.4492 2.5033 31.1174 1.8331 29.6085 1.8331C27.2263 1.8331 25.821 3.55629 25.821 5.99325V6.00739C25.821 8.4585 27.2263 10.1803 29.6085 10.1803C31.539 10.1803 33.1297 9.04865 33.1297 7.09546V7.01568H29.3495V5.73269H34.6235V11.2978H33.3364L33.3147 9.69085C32.693 10.664 31.3691 11.4998 29.5568 11.4998C26.3091 11.4998 24.1562 9.21415 24.1562 6.00739Z" fill="#1D1D1D"/>
<path d="M36.3203 0.701904H38.3768L43.4809 9.40243H43.4954L43.4809 7.13918V0.701904H44.9976V11.2982H42.9261L37.8365 2.59767H37.8219L37.8365 4.86092V11.2982H36.3203V0.701904Z" fill="#1D1D1D"/>
<path d="M0 6.89408V5.16495L10.8746 0.698975V2.37181L7.31738 3.81039C7.31738 3.81039 7.78714 4.75106 7.78714 6.1158C7.78714 7.48054 7.31389 8.40961 7.31389 8.40961L10.8746 9.83886V11.3601L0 6.89408ZM6.05325 4.32471L1.64331 6.11693V6.13108L6.05964 7.90604C6.05964 7.90604 6.42836 7.16821 6.42836 6.1158C6.42836 5.06338 6.05325 4.32471 6.05325 4.32471Z" fill="#1D1D1D"/>
</svg>
